<svg width="16" height="16" viewBox="0 0 16 16" fill="none" xmlns="http://www.w3.org/2000/svg">
<path d="M2.16667 2.45833C2.16667 1.65275 2.81942 1 3.625 1C4.43058 1 5.08333 1.65275 5.08333 2.45833C5.08333 3.26392 4.43058 3.91667 3.625 3.91667C2.81942 3.91667 2.16667 3.26392 2.16667 2.45833ZM5.08333 6.83333C4.76133 6.83333 4.5 7.09408 4.5 7.41667V9.75H3.33333C2.68992 9.75 2.16667 9.22675 2.16667 8.58333V6.83333C2.16667 6.18992 2.68992 5.66667 3.33333 5.66667H9.16667C9.48867 5.66667 9.75 5.40592 9.75 5.08333C9.75 4.76075 9.48867 4.5 9.16667 4.5H3.33333C2.0465 4.5 1 5.5465 1 6.83333V8.58333C1 9.44317 1.4725 10.1875 2.16667 10.5923V14.4167C2.16667 14.7392 2.428 15 2.75 15C3.072 15 3.33333 14.7392 3.33333 14.4167V10.9167H4.5V14.4167C4.5 14.7392 4.76133 15 5.08333 15C5.40533 15 5.66667 14.7392 5.66667 14.4167V7.41667C5.66667 7.09408 5.40533 6.83333 5.08333 6.83333ZM15 12.0833V13.25C15 14.2148 14.2148 15 13.25 15H12.0833C11.6336 15 11.227 14.8244 10.9167 14.545C10.6063 14.825 10.1997 15 9.75 15H8.58333C7.6185 15 6.83333 14.2148 6.83333 13.25V12.0833C6.83333 11.1185 7.6185 10.3333 8.58333 10.3333H8.69067C8.62533 10.1502 8.58333 9.95533 8.58333 9.75V8.58333C8.58333 7.6185 9.3685 6.83333 10.3333 6.83333H11.5C12.4648 6.83333 13.25 7.6185 13.25 8.58333V9.75C13.25 9.95533 13.208 10.1502 13.1427 10.3333H13.25C14.2148 10.3333 15 11.1185 15 12.0833ZM9.75 9.75C9.75 10.072 10.0119 10.3333 10.3333 10.3333H11.5C11.8214 10.3333 12.0833 10.072 12.0833 9.75V8.58333C12.0833 8.26133 11.8214 8 11.5 8H10.3333C10.0119 8 9.75 8.26133 9.75 8.58333V9.75ZM10.3333 13.25V12.0833C10.3333 11.7613 10.0714 11.5 9.75 11.5H8.58333C8.26192 11.5 8 11.7613 8 12.0833V13.25C8 13.572 8.26192 13.8333 8.58333 13.8333H9.75C10.0714 13.8333 10.3333 13.572 10.3333 13.25ZM13.8333 12.0833C13.8333 11.7613 13.5714 11.5 13.25 11.5H12.0833C11.7619 11.5 11.5 11.7613 11.5 12.0833V13.25C11.5 13.572 11.7619 13.8333 12.0833 13.8333H13.25C13.5714 13.8333 13.8333 13.572 13.8333 13.25V12.0833Z" fill="#1997CE"/>
</svg>
