<svg width="60" height="60" viewBox="0 0 60 60" fill="none" xmlns="http://www.w3.org/2000/svg">
<path d="M53 8.34982C54.6 8.34982 55.89 7.05982 55.89 5.45982C55.89 3.85982 54.6 2.56982 53 2.56982C51.4 2.56982 50.11 3.85982 50.11 5.45982C50.11 7.05982 51.4 8.34982 53 8.34982Z" stroke="#2E3032" stroke-width="1.25" stroke-linecap="round" stroke-linejoin="round"/>
<path d="M2.14001 50.91C2.14001 49.04 3.66001 47.52 5.53001 47.52C7.40001 47.52 8.92001 49.04 8.92001 50.91C8.92001 52.78 7.40001 54.3 5.53001 54.3" stroke="#2E3032" stroke-width="1.25" stroke-linecap="round" stroke-linejoin="round"/>
<path d="M53.21 57.5599L57.29 52.4199" stroke="#2E3032" stroke-width="1.25" stroke-linecap="round" stroke-linejoin="round"/>
<path d="M31.7199 54.9902C44.7099 54.9902 55.2499 44.4602 55.2499 31.4602C55.2499 18.4602 44.7199 7.93018 31.7199 7.93018C18.7199 7.93018 8.18994 18.4702 8.18994 31.4602C8.18994 44.4502 18.7199 54.9902 31.7199 54.9902Z" fill="white" stroke="#2E3032" stroke-linecap="round" stroke-linejoin="round"/>
<path d="M23.1899 32.6104L29.0499 36.9504L40.5599 23.9204" stroke="#4794C8" stroke-width="2" stroke-linecap="round" stroke-linejoin="round"/>
</svg>
