<svg width="60" height="60" viewBox="0 0 60 60" fill="none" xmlns="http://www.w3.org/2000/svg">
<mask id="mask0_728_2968" style="mask-type:alpha" maskUnits="userSpaceOnUse" x="0" y="0" width="60" height="60">
<rect width="60" height="60" fill="#D9D9D9"/>
</mask>
<g mask="url(#mask0_728_2968)">
<g clip-path="url(#clip0_728_2968)">
<path d="M8.98806 22.4635C15.9137 16.6099 23.4094 16.3057 31.351 22.4635C31.3514 22.4638 31.3518 22.4641 31.3522 22.4644L31.3524 22.4621C31.3524 22.4621 39.2919 28.6206 31.3522 22.4644L29.6371 47.6469H20.5289C20.5289 47.6469 12.1699 47.6551 9.38357 47.6469C5.83757 47.636 3.83954 45.9066 3.75634 42.1015C3.70997 39.948 3.62678 35.6341 3.75634 33.4834C4.03048 28.9554 5.82393 25.1366 8.98806 22.4635Z" fill="white"/>
<path d="M22.8496 47.6469H20.5289C20.5289 47.6469 12.1699 47.6551 9.38357 47.6469C5.83757 47.636 3.83954 45.9066 3.75634 42.1015C3.70997 39.948 3.62678 35.6342 3.75634 33.4834C4.03048 28.9554 5.82393 25.1366 8.98806 22.4635C15.9137 16.6099 23.4094 16.3057 31.351 22.4635L31.3524 22.4621" stroke="#2E3032" stroke-miterlimit="10"/>
<path d="M19.8225 2.5C24.1003 2.50015 27.5676 5.96829 27.5676 10.2461C27.5675 14.5238 24.1002 17.9911 19.8225 17.9912C15.5447 17.9912 12.0766 14.5239 12.0764 10.2461C12.0764 5.9682 15.5446 2.5 19.8225 2.5Z" fill="white" stroke="#2E3032"/>
<path d="M12.5885 34.75V42.8131C12.4003 45.6662 10.4895 46.8187 8.17236 47.5688" stroke="#2E3032" stroke-miterlimit="10"/>
<path d="M46.8211 58.9978H27.8744C24.1142 58.9978 21.1626 55.7713 21.4982 52.0253L22.5454 40.3423H52.1521L53.1953 52.0293C53.5288 55.7734 50.5793 58.9999 46.8191 58.9999L46.8211 58.9978Z" fill="white" stroke="#2E3032" stroke-miterlimit="10"/>
<path d="M53.4582 40.5468C52.3867 41.3554 52.4575 44.0603 49.5221 44.1938C46.5846 44.3252 45.406 41.4565 43.7422 41.503C41.848 41.5556 40.4773 43.8036 37.3458 44.1938C34.2143 44.5839 32.965 41.3514 31.0808 41.3797C29.417 41.4039 28.1191 43.8117 24.8603 43.65C21.5994 43.4862 22.127 41.3392 21.2335 40.5488C20.164 39.6047 18.761 39.1518 19.1087 37.7104C20.0063 33.9825 21.561 27.5881 22.3191 24.8327C22.8265 22.9869 23.8131 21.3555 25.6548 21.3555H49.3785C51.2202 21.3555 52.2108 22.9849 52.7142 24.8327C53.4723 27.6185 54.8349 34.0715 55.6031 37.7852C55.8963 39.2084 54.5741 39.7078 53.4602 40.5488L53.4582 40.5468Z" fill="white" stroke="#2E3032" stroke-miterlimit="10"/>
<path d="M38.2253 51.7186C39.545 51.7186 40.6148 50.6487 40.6148 49.329C40.6148 48.0093 39.545 46.9395 38.2253 46.9395C36.9055 46.9395 35.8357 48.0093 35.8357 49.329C35.8357 50.6487 36.9055 51.7186 38.2253 51.7186Z" fill="white"/>
<path d="M37.3478 51.7186C38.6675 51.7186 39.7374 50.6487 39.7374 49.329C39.7374 48.0093 38.6675 46.9395 37.3478 46.9395C36.0281 46.9395 34.9583 48.0093 34.9583 49.329C34.9583 50.6487 36.0281 51.7186 37.3478 51.7186Z" fill="#2E3032"/>
<path d="M29.6857 24.653C27.9714 24.469 26.1378 24.188 24.949 25.2291C23.7603 26.2703 22.8122 31.1343 22.0622 35.3312C21.6781 37.4802 22.7697 39.0045 25.0643 39.1561C26.6614 39.2612 27.8481 38.3131 28.3312 36.3137L29.6857 24.653Z" fill="#1997CE"/>
<path d="M45.0076 24.653C46.7219 24.469 48.5555 24.188 49.7442 25.2291C50.933 26.2703 51.8811 31.1343 52.6311 35.3312C53.0152 37.4802 51.9235 39.0045 49.629 39.1561C48.0319 39.2612 46.8452 38.3131 46.3621 36.3137L45.0076 24.653Z" fill="#1997CE"/>
<path d="M37.4044 38.9357C35.0593 38.9357 33.2418 36.8858 33.5229 34.5569L34.7116 24.7075H40.1841L41.292 34.5912C41.5507 36.908 39.7373 38.9357 37.4064 38.9357H37.4044Z" fill="#1997CE"/>
</g>
</g>
<defs>
<clipPath id="clip0_728_2968">
<rect width="58" height="58.4157" fill="white" transform="translate(1 1)"/>
</clipPath>
</defs>
</svg>
